<?xml version="1.0" encoding="utf-8"?>
<!-- Generator: Adobe Illustrator 27.5.0, SVG Export Plug-In . SVG Version: 6.00 Build 0)  -->
<svg version="1.1" xmlns="http://www.w3.org/2000/svg" xmlns:xlink="http://www.w3.org/1999/xlink" x="0px" y="0px"
	 viewBox="0 0 3710 3710" style="enable-background:new 0 0 3710 3710;" xml:space="preserve">
<g id="Background">
	<g>
		<g>
			<rect style="fill:#FFFFFF;" width="3710" height="3710"/>
		</g>
	</g>
</g>
<g id="Illustration">
	<g>
		<linearGradient id="SVGID_1_" gradientUnits="userSpaceOnUse" x1="3585.9304" y1="4072.5176" x2="1121.2694" y2="1011.5632">
			<stop  offset="0" style="stop-color:#DAE3FE"/>
			<stop  offset="1" style="stop-color:#E9EFFD"/>
		</linearGradient>
		<path style="fill:url(#SVGID_1_);" d="M2907.886,2865.388c-56.612,59.599-110.178,98.034-152.5,128.4
			c-497.48,356.948-1086.132,252.899-1211.237,227.49c-184.741-37.522-541.841-110.051-800.018-413.662
			c-390.6-459.338-329.778-1183.012-26.802-1660.719c55.419-87.381,348.159-572.364,943.15-650.141
			c360.083-47.069,779.823,47.864,1083.788,302.526C3382.316,1333.84,3336.894,2413.742,2907.886,2865.388z"/>
		<g>
			<path style="fill:#91B3FA;" d="M2355.215,3161.411c-4.791-0.652-9.081-3.177-11.962-7.061
				c-41.989-56.588-347.306-499.437,59.029-904.238c385.74-384.283,560.592-463.185,583.846-688.968
				c2.715-26.367,38.361-32.695,50.089-8.925c87.649,177.648,224.209,592.19-227.707,864.277
				c-498.511,300.141-457.655,629.157-433.547,722.656C2378.151,3151.511,2367.862,3163.132,2355.215,3161.411L2355.215,3161.411z"
				/>
			<path style="fill:#91B3FA;" d="M2417.041,3169.826c-11.343-1.544-20.33-10.291-22.079-21.605
				c-11.901-77.007-41.125-364.763,170.868-441.07c233.373-84.002,421.781,133.343,593.327-36.773
				c9.026-8.951,24.204-1.151,22.05,11.378c-15.278,88.863-83.279,294.691-385.857,336.106
				c-323.863,44.329-360.309,81.481-353.77,127.57C2443.597,3159.641,2431.262,3171.762,2417.041,3169.826L2417.041,3169.826z"/>
			<path style="opacity:0.47;fill:#FFFFFF;" d="M2974.847,1791.342c-3.955,16.753-9.215,32.468-15.493,48.072
				c-6.164,15.585-13.262,30.784-21,45.653c-15.322,29.843-33.708,58.071-53.839,84.964
				c-40.533,53.654-89.572,100.782-143.623,140.749c-26.957,19.868-55.777,38.13-84.266,54.63
				c-27.738,16.088-54.426,34.088-79.99,53.581c-51.164,38.979-97.553,84.212-138.52,133.805
				c-81.615,99.263-139.538,219.056-158.605,346.599c-9.732,63.625-9.847,128.77-1.084,192.927
				c8.661,64.239,26.971,127.143,51.117,187.792c1.305,3.233-0.258,6.912-3.491,8.216c-3.106,1.254-6.645-0.184-8.075-3.163
				c-28.233-59.935-49.329-123.652-61.007-189.445c-5.968-32.862-9.5-66.238-10.508-99.744c-0.804-33.499,0.607-67.139,4.83-100.471
				c8.112-66.737,26.937-132.109,54.05-193.647c27.191-61.568,63.11-119.077,105.069-171.534
				c41.945-52.532,90.608-99.531,143.819-140.592c26.657-20.484,54.533-39.435,83.629-56.459
				c28.485-16.346,55.525-32.952,81.717-51.854c52.277-37.341,100.588-80.448,142.148-129.644
				c21.042-24.382,40.092-50.479,57.5-77.685c17.063-27.259,33.01-56.02,44.487-85.76l0.15-0.386
				c1.144-2.97,4.481-4.447,7.451-3.301C2974.033,1785.691,2975.502,1788.581,2974.847,1791.342z"/>
			<path style="opacity:0.47;fill:#FFFFFF;" d="M2403.597,3117.601c0.99-2.787,0.681-5.378,0.59-8.042l-0.246-7.936l-0.185-15.865
				c0.019-10.574,0.246-21.146,0.708-31.712c0.941-21.128,2.741-42.232,5.568-63.231c5.764-41.926,15.265-83.734,32.189-123.109
				c16.736-39.103,42.081-76.473,78.865-100.889c18.324-11.985,38.995-20.52,60.417-24.855c21.405-4.511,43.399-5.181,64.909-3.292
				c84.305,9.777,166.939,25.941,249.79,39.066c41.269,6.153,83.12,11.646,123.636,6.106c10.069-1.476,19.989-3.674,29.624-6.77
				c9.536-3.327,18.906-7.226,27.659-12.355c17.62-10.061,33.112-23.813,46.955-39.075l0.043-0.047
				c1.908-2.102,5.156-2.262,7.258-0.354c2.074,1.881,2.254,5.072,0.429,7.177c-14.029,16.154-30.06,31.085-48.795,42.328
				c-9.302,5.715-19.338,10.17-29.573,13.972c-10.328,3.572-20.947,6.16-31.66,7.96c-43.15,6.321-85.927,0.946-127.669-4.777
				c-41.863-5.957-83.198-13.718-124.68-20.43c-41.351-6.732-83.186-13.238-124.367-18.067c-20.329-1.968-40.885-1.49-60.703,2.509
				c-19.852,3.834-38.829,11.495-55.808,22.371c-34.227,21.795-59.062,56.479-75.925,94.023
				c-17.061,37.732-27.198,78.585-33.626,119.801c-3.167,20.648-5.331,41.473-6.644,62.357c-0.648,10.442-1.067,20.901-1.276,31.363
				l-0.105,15.69l0.1,7.836c0.069,2.594-0.05,5.259,1.227,7.723c1.212,2.34,0.299,5.219-2.039,6.432
				c-2.34,1.212-5.22,0.299-6.433-2.04c-0.629-1.217-0.685-2.581-0.264-3.779L2403.597,3117.601z"/>
		</g>
		<g>
			<g>
				
					<linearGradient id="SVGID_00000109719559738586582220000013318598581697598862_" gradientUnits="userSpaceOnUse" x1="5363.3906" y1="-1443.2692" x2="212.7722" y2="2946.9202">
					<stop  offset="0" style="stop-color:#E1473D"/>
					<stop  offset="1" style="stop-color:#E9605A"/>
				</linearGradient>
				<path style="fill:url(#SVGID_00000109719559738586582220000013318598581697598862_);" d="M1963.114,486.796
					c-127.017-1.002-255.137,19.141-368.489,66.172c-263.864,109.481-487.797,399.17-400.164,695.069
					c28.468,96.123,13.512,202.17,109.271,243.943c51.812,22.602,192.908,36.055,246.555,18.243
					c142.587-47.341,236.311-176.908,158.763-320.59c-24.834-46.013-56.977-88.047-78.421-135.733
					c-21.445-47.687-31.218-104.288-9.355-151.789c42.917-93.235,185.486-122.875,277.94-120.078
					c109.123,3.301,208.001,57.275,266.724,149.866c73.187,115.397,91.728,255.756,81.016,389.707
					c-11.461,143.331-71.895,252.787-162.466,362.742c-77.976,94.665-163.847,185.535-215.673,296.692
					c-47.579,102.048-63.127,215.119-65.276,326.761c-0.417,21.638-108.028,225.559-107.566,287.857
					c0.065,8.801,122.05,37.958,130.851,38.056c45.926,0.514,176.012,1.968,223.892,2.502c9.847,0.11,17.963-7.76,18.074-17.606
					c3.408-303.094,96.636-592.06,332.636-795.62c85.873-74.069,178.354-134.385,245.126-227.875
					c95.171-133.251,142.122-264.386,128.573-428.839c-12.375-150.196-61.832-300.474-159.734-417.008
					c-105.226-125.251-259.236-203.467-419.301-237.221C2121.445,496.307,2042.495,487.422,1963.114,486.796z"/>
				
					<linearGradient id="SVGID_00000005945056004390112310000013005550778455798168_" gradientUnits="userSpaceOnUse" x1="6114.6211" y1="-561.9202" x2="963.9946" y2="3828.2764">
					<stop  offset="0" style="stop-color:#E1473D"/>
					<stop  offset="1" style="stop-color:#E9605A"/>
				</linearGradient>
				<path style="fill:url(#SVGID_00000005945056004390112310000013005550778455798168_);" d="M2197.345,2975.989
					c0,139.376-77.256,262.684-216.632,262.684c-30.108,0-132.512,0.278-159.284-9.394
					c-97.161-35.102-97.511-109.746-97.511-219.014c0-139.375,47.065-276.45,186.44-276.45S2197.345,2836.613,2197.345,2975.989z"/>
			</g>
			<g>
				
					<linearGradient id="SVGID_00000085251577679647789460000008827436186843518394_" gradientUnits="userSpaceOnUse" x1="555.0643" y1="2735.6646" x2="5026.3682" y2="-1999.2568">
					<stop  offset="0" style="stop-color:#FF928E"/>
					<stop  offset="1" style="stop-color:#FE7062"/>
				</linearGradient>
				<path style="fill:url(#SVGID_00000085251577679647789460000008827436186843518394_);" d="M1842.425,455.035
					c-127.017-1.002-255.137,19.141-368.489,66.172c-263.864,109.481-487.797,399.17-400.164,695.069
					c28.468,96.123,94.289,217.12,190.048,258.893c51.812,22.602,112.13,21.104,165.778,3.293
					c142.587-47.341,236.311-176.908,158.763-320.59c-24.834-46.013-56.977-88.047-78.421-135.733s-31.218-104.288-9.355-151.789
					c42.917-93.235,185.486-122.875,277.94-120.078c109.123,3.301,208.001,57.275,266.724,149.866
					c73.187,115.397,91.727,255.756,81.016,389.707c-11.461,143.331-71.896,252.787-162.466,362.742
					c-77.976,94.665-163.847,185.535-215.673,296.692c-47.579,102.048-63.127,215.119-65.276,326.761
					c-0.417,21.638,6.868,247.605,7.33,309.903c0.065,8.801,7.154,15.911,15.955,16.01c45.926,0.514,176.012,1.968,223.892,2.502
					c9.847,0.11,17.963-7.76,18.074-17.606c3.408-303.094,96.636-592.06,332.637-795.62
					c85.873-74.069,178.354-134.385,245.126-227.875c95.171-133.251,142.122-264.386,128.572-428.839
					c-12.375-150.196-61.832-300.474-159.734-417.008c-105.226-125.251-259.236-203.467-419.301-237.221
					C2000.755,464.546,1921.806,455.662,1842.425,455.035z"/>
				
					<linearGradient id="SVGID_00000170243721753104553900000006588280338405026458_" gradientUnits="userSpaceOnUse" x1="2373.2964" y1="2406.4399" x2="1359.5457" y2="3526.634">
					<stop  offset="0" style="stop-color:#FF928E"/>
					<stop  offset="1" style="stop-color:#FE7062"/>
				</linearGradient>
				
					<circle style="fill:url(#SVGID_00000170243721753104553900000006588280338405026458_);" cx="1855.59" cy="2978.505" r="252.362"/>
			</g>
			<path style="opacity:0.63;fill:#FFFFFF;" d="M1157.305,1187.292c-1.485,0-2.825-1.028-3.158-2.539
				c-17.685-79.853-20.283-204.902,67.781-347.156c85.952-138.845,206.519-231.748,358.354-276.132
				c162.307-47.439,355.005-37.283,572.761,30.188c1.709,0.53,2.667,2.345,2.135,4.053c-0.528,1.708-2.356,2.668-4.049,2.135
				c-418.344-129.629-746.38-43.268-923.697,243.165c-86.916,140.402-84.388,263.666-66.963,342.347
				c0.386,1.746-0.716,3.475-2.462,3.861C1157.773,1187.267,1157.536,1187.292,1157.305,1187.292z"/>
			<path style="opacity:0.63;fill:#FFFFFF;" d="M1210.391,1315.773c-1,0-1.983-0.46-2.617-1.328
				c-0.766-1.048-18.953-26.175-35.866-70.43c-0.637-1.672,0.198-3.543,1.871-4.181c1.66-0.635,3.541,0.195,4.181,1.868
				c16.577,43.377,34.859,68.672,35.044,68.923c1.053,1.444,0.736,3.47-0.706,4.524
				C1211.72,1315.57,1211.051,1315.773,1210.391,1315.773z"/>
			<path style="opacity:0.63;fill:#FFFFFF;" d="M1940.033,2814.939c-0.492,0-0.993-0.112-1.462-0.352
				c-25.86-13.116-53.779-19.766-82.982-19.766c-1.789,0-3.238-1.45-3.238-3.239c0-1.789,1.449-3.239,3.238-3.239
				c30.229,0,59.135,6.887,85.912,20.469c1.594,0.809,2.231,2.757,1.422,4.353
				C1942.353,2814.291,1941.214,2814.939,1940.033,2814.939z"/>
			<path style="opacity:0.63;fill:#FFFFFF;" d="M1751.077,3136.743c-0.624,0-1.254-0.18-1.808-0.556
				c-52.499-35.467-83.84-94.413-83.84-157.682c0-70.144,38.417-134.368,100.255-167.607c1.574-0.85,3.538-0.258,4.386,1.32
				c0.848,1.576,0.257,3.539-1.317,4.386c-59.739,32.109-96.849,94.145-96.849,161.901c0,61.115,30.279,118.056,80.989,152.316
				c1.482,1.001,1.875,3.015,0.871,4.496C1753.14,3136.243,1752.117,3136.743,1751.077,3136.743z"/>
		</g>
		<g>
			<g>
				<g style="opacity:0.3;">
					<path style="fill:#91B3FA;" d="M1016.107,927.135c-2.654,3.279-7.465,3.784-10.742,1.129
						c-6.369-5.156-13.056-10.114-19.877-14.733c-3.451-2.337-4.383-7.002-2.122-10.482c0.027-0.041,0.054-0.082,0.081-0.125
						c2.365-3.492,7.114-4.405,10.607-2.039c7.179,4.863,14.22,10.08,20.924,15.51c3.066,2.481,3.705,6.852,1.602,10.088
						C1016.435,926.706,1016.279,926.925,1016.107,927.135z M950.746,893.324c-7.383-3.645-14.992-7.008-22.622-9.999
						c-3.924-1.538-5.862-5.969-4.324-9.897c1.558-3.936,5.972-5.862,9.899-4.322c8.027,3.146,16.037,6.686,23.806,10.52
						c3.782,1.867,5.334,6.448,3.467,10.23c-0.136,0.275-0.286,0.538-0.448,0.788C958.445,893.844,954.253,895.056,950.746,893.324z
						 M889.796,871.304c-7.987-1.905-16.154-3.485-24.279-4.697c-4.171-0.622-7.049-4.51-6.427-8.68
						c0.626-4.167,4.508-7.047,8.681-6.427c8.556,1.276,17.158,2.941,25.568,4.947c4.103,0.978,6.634,5.098,5.658,9.201
						c-0.209,0.874-0.56,1.678-1.023,2.391C896.263,870.67,893.023,872.074,889.796,871.304z M825.451,863.469
						c-8.221-0.072-16.54,0.214-24.728,0.846c-4.206,0.323-7.878-2.823-8.202-7.027c-0.32-4.205,2.826-7.874,7.027-8.202
						c8.622-0.664,17.38-0.964,26.032-0.892c4.217,0.037,7.608,3.485,7.571,7.702c-0.013,1.509-0.462,2.912-1.228,4.09
						C830.549,862.101,828.159,863.49,825.451,863.469z M760.964,870.163c-8.012,1.752-16.064,3.872-23.928,6.304
						c-4.031,1.244-8.307-1.013-9.553-5.042c-1.247-4.032,1.012-8.308,5.043-9.55c8.273-2.558,16.745-4.789,25.176-6.632
						c4.119-0.902,8.19,1.708,9.091,5.829c0.455,2.076,0.017,4.14-1.057,5.792C764.681,868.49,763.008,869.716,760.964,870.163z
						 M699.567,890.959c-7.438,3.485-14.816,7.333-21.934,11.439c-3.653,2.107-8.325,0.853-10.43-2.799
						c-2.108-3.654-0.857-8.323,2.798-10.433c7.49-4.321,15.259-8.371,23.086-12.039c3.82-1.789,8.365-0.144,10.156,3.676
						c1.163,2.481,0.874,5.268-0.516,7.408C701.975,889.366,700.906,890.332,699.567,890.959z M527.444,1116.351
						c-4.17-0.629-7.042-4.52-6.413-8.691c1.29-8.543,2.971-17.148,4.996-25.569c0.986-4.102,5.11-6.627,9.211-5.639
						c4.099,0.984,6.624,5.109,5.639,9.209c-1.923,7.997-3.518,16.166-4.742,24.279c-0.168,1.113-0.567,2.132-1.144,3.019
						C533.41,1115.393,530.502,1116.813,527.444,1116.351z M644.339,924.827c-6.473,5.049-12.805,10.441-18.819,16.028
						c-3.092,2.87-7.925,2.691-10.794-0.399c-2.872-3.092-2.676-7.91,0.4-10.794c6.335-5.883,13.003-11.561,19.819-16.878
						c3.326-2.594,8.124-2.001,10.719,1.325c2.058,2.637,2.11,6.203,0.384,8.859C645.599,923.661,645.026,924.29,644.339,924.827z
						 M543.069,1051.65c-3.923-1.546-5.85-5.982-4.303-9.907c3.17-8.036,6.729-16.043,10.573-23.798
						c1.859-3.791,6.457-5.321,10.236-3.449c3.778,1.873,5.322,6.456,3.449,10.236c-3.654,7.37-7.037,14.979-10.048,22.617
						c-0.192,0.487-0.431,0.942-0.706,1.365C550.333,1051.695,546.504,1053.005,543.069,1051.65z M598.075,970.18
						c-5.176,6.367-10.146,13.04-14.77,19.839c-2.371,3.49-7.121,4.393-10.61,2.021c-3.441-2.341-4.367-6.999-2.11-10.473
						c0.029-0.045,0.06-0.091,0.091-0.135c4.866-7.159,10.097-14.186,15.544-20.887c2.663-3.271,7.472-3.768,10.746-1.107
						c3.057,2.484,3.691,6.847,1.59,10.079C598.409,969.742,598.247,969.964,598.075,970.18z"/>
					<path style="fill:#91B3FA;" d="M531.821,1166.492c0.819-1.261,1.277-2.776,1.226-4.394c-0.125-3.936-0.167-7.939-0.132-11.901
						c0.04-4.217-3.349-7.669-7.565-7.707c-4.218-0.041-7.675,3.347-7.707,7.567c-0.04,4.167,0.007,8.377,0.136,12.519
						c0.132,4.215,3.658,7.527,7.871,7.394C528.251,1169.889,530.505,1168.518,531.821,1166.492z"/>
				</g>
				<g style="opacity:0.3;">
					<path style="fill:#91B3FA;" d="M629.426,1377.882c2.008-3.091,1.535-7.267-1.286-9.819c-2.921-2.64-5.836-5.386-8.661-8.161
						c-3.01-2.956-7.845-2.912-10.8,0.097c-2.967,3.022-2.911,7.846,0.097,10.801c2.976,2.921,6.045,5.814,9.119,8.594
						c3.129,2.828,7.958,2.585,10.787-0.543C628.961,1378.544,629.208,1378.219,629.426,1377.882z"/>
					<path style="fill:#91B3FA;" d="M1069.829,1332.139c-2.468,3.42-7.242,4.192-10.664,1.721c-3.419-2.469-4.185-7.235-1.72-10.662
						c4.7-6.51,9.195-13.323,13.417-20.323c2.155-3.602,6.873-4.773,10.485-2.595c3.612,2.178,4.774,6.872,2.597,10.484
						c-1.829,3.033-3.701,6.024-5.615,8.97C1075.595,1323.938,1072.737,1328.112,1069.829,1332.139z M1092.932,1277.737
						c-3.871-1.669-5.658-6.162-3.989-10.034c3.203-7.437,6.13-15.088,8.693-22.744c1.325-3.999,5.666-6.157,9.667-4.818
						c3.997,1.338,6.155,5.667,4.816,9.665c-2.698,8.061-5.776,16.116-9.15,23.941c-0.175,0.406-0.381,0.79-0.614,1.147
						C1100.364,1277.956,1096.401,1279.232,1092.932,1277.737z M1043.216,1364.134c-5.868,6.145-12.08,12.123-18.465,17.767
						c-3.16,2.794-7.987,2.496-10.782-0.665c-2.792-3.16-2.491-7.982,0.665-10.78c6.065-5.359,11.963-11.034,17.534-16.87
						c2.914-3.05,7.748-3.162,10.8-0.249c2.698,2.577,3.095,6.658,1.133,9.677
						C1043.846,1363.406,1043.551,1363.783,1043.216,1364.134z M1113.679,1215.611c-4.145-0.777-6.877-4.769-6.097-8.914
						c1.492-7.946,2.66-16.051,3.476-24.089c0.424-4.2,4.169-7.254,8.368-6.828c4.196,0.425,7.252,4.17,6.827,8.366
						c-0.858,8.465-2.089,17-3.659,25.368c-0.191,1.011-0.57,1.939-1.098,2.752
						C1119.86,1214.783,1116.812,1216.199,1113.679,1215.611z M991.773,1407.235c-7.072,4.701-14.444,9.164-21.913,13.267
						c-3.696,2.031-8.337,0.682-10.369-3.014c-2.034-3.698-0.682-8.341,3.015-10.372c7.094-3.898,14.097-8.137,20.812-12.602
						c3.513-2.335,8.254-1.38,10.589,2.133c1.74,2.618,1.652,5.916,0.043,8.392C993.399,1405.888,992.668,1406.641,991.773,1407.235
						z M932.124,1438.009c-7.947,3.049-16.116,5.797-24.279,8.17c-4.052,1.176-8.288-1.152-9.466-5.203
						c-1.178-4.056,1.151-8.292,5.203-9.464c7.756-2.255,15.519-4.867,23.072-7.762c3.938-1.511,8.355,0.458,9.866,4.396
						c0.909,2.373,0.556,4.921-0.731,6.9C934.941,1436.351,933.688,1437.409,932.124,1438.009z M867.184,1455.053
						c-8.427,1.246-17.001,2.15-25.48,2.688c-4.211,0.266-7.837-2.93-8.105-7.139c-0.267-4.215,2.931-7.838,7.138-8.105
						c8.058-0.509,16.203-1.37,24.212-2.554c4.172-0.617,8.055,2.266,8.671,6.437c0.284,1.917-0.17,3.771-1.149,5.277
						C871.319,1453.43,869.44,1454.719,867.184,1455.053z M800.073,1457.525c-8.495-0.626-17.061-1.623-25.461-2.964
						c-4.165-0.664-7.004-4.58-6.338-8.746c0.663-4.158,4.581-7,8.746-6.336c7.975,1.273,16.108,2.219,24.179,2.814
						c4.206,0.31,7.364,3.97,7.053,8.177c-0.099,1.329-0.53,2.551-1.208,3.595C805.574,1456.324,802.952,1457.736,800.073,1457.525z
						 M734.024,1445.183c-8.128-2.477-16.257-5.335-24.165-8.495c-3.917-1.566-5.824-6.01-4.258-9.927
						c1.562-3.904,6.008-5.823,9.925-4.257c7.512,3.003,15.233,5.717,22.954,8.071c4.033,1.228,6.307,5.497,5.077,9.531
						c-0.214,0.702-0.519,1.353-0.901,1.939C740.849,1444.826,737.356,1446.199,734.024,1445.183z M672.362,1418.668
						c-5.448-3.085-10.87-6.377-16.11-9.783c-1.899-1.234-3.776-2.484-5.638-3.752c-3.484-2.374-4.483-7.127-2.01-10.61
						c2.373-3.487,7.124-4.388,10.612-2.013c1.768,1.204,3.555,2.396,5.359,3.568c4.983,3.238,10.133,6.366,15.314,9.3
						c3.67,2.077,4.96,6.738,2.882,10.408c-0.079,0.137-0.16,0.273-0.245,0.405C680.342,1419.549,675.893,1420.669,672.362,1418.668
						z"/>
					<path style="fill:#91B3FA;" d="M1126.365,1146.778c0.827-1.273,1.284-2.803,1.226-4.433c-0.15-4.132-0.391-8.339-0.715-12.504
						c-0.327-4.206-4.001-7.35-8.205-7.022c-4.205,0.329-7.351,3.997-7.022,8.205c0.307,3.957,0.535,7.953,0.679,11.876
						c0.151,4.213,3.692,7.507,7.908,7.354C1122.819,1150.159,1125.056,1148.791,1126.365,1146.778z"/>
				</g>
				<g>
					<path style="fill:#91B3FA;" d="M1030.573,1057.527c-0.466-1.45-1.798-2.446-3.321-2.479l-43.433-0.955
						c-10.434-17.4-23.717-33.26-39.612-46.797l6.198-42.97c0.217-1.507-0.546-2.986-1.9-3.683l-46.333-23.846
						c-1.354-0.698-3.002-0.458-4.101,0.594l-31.366,30.018c-20.254-5.068-40.881-6.661-61.104-5.039l-26.018-34.789
						c-0.912-1.219-2.498-1.726-3.948-1.261l-49.624,15.901c-1.45,0.465-2.446,1.798-2.479,3.321l-0.954,43.432
						c-17.4,10.433-33.261,23.716-46.797,39.613l-42.97-6.198c-1.508-0.218-2.987,0.545-3.683,1.899l-23.847,46.333
						c-0.697,1.354-0.457,3.001,0.595,4.101l30.018,31.367c-5.069,20.254-6.661,40.881-5.038,61.104l-34.79,26.018
						c-1.219,0.912-1.727,2.497-1.261,3.948l15.901,49.624c0.464,1.45,1.799,2.445,3.32,2.479l43.434,0.954
						c10.433,17.4,23.716,33.26,39.612,46.797l-6.198,42.971c-0.218,1.507,0.545,2.987,1.899,3.683l46.334,23.846
						c1.354,0.697,3.001,0.458,4.101-0.595l31.367-30.017c20.254,5.068,40.881,6.66,61.104,5.039l26.018,34.789
						c0.911,1.22,2.497,1.726,3.948,1.261l49.624-15.901c1.45-0.465,2.445-1.798,2.479-3.32l0.954-43.433
						c17.4-10.433,33.26-23.716,46.797-39.612l42.97,6.198c1.506,0.217,2.986-0.545,3.683-1.9l23.846-46.333
						c0.697-1.354,0.458-3.001-0.595-4.101l-30.017-31.366c5.068-20.254,6.659-40.881,5.038-61.104l34.79-26.019
						c1.22-0.912,1.726-2.498,1.261-3.947L1030.573,1057.527z"/>
					<g>
						<path style="fill:#BDD0FB;" d="M859.928,1186.795c-19.101,21.663-52.263,23.751-73.93,4.649
							c-10.496-9.252-16.759-22.039-17.636-36.002c-0.879-13.961,3.731-27.432,12.987-37.926
							c19.101-21.664,52.264-23.751,73.93-4.649c19.709,17.378,23.214,46.394,9.302,67.803
							C863.202,1182.792,861.65,1184.842,859.928,1186.795z M780.557,1154.676c0.674,10.707,5.475,20.509,13.523,27.604
							c16.609,14.643,42.039,13.045,56.683-3.565c14.654-16.61,13.045-42.039-3.566-56.685
							c-16.609-14.643-42.039-13.045-56.683,3.565c-1.328,1.507-2.528,3.091-3.602,4.744
							C782.246,1137.521,780.011,1145.975,780.557,1154.676z"/>
					</g>
					<path style="fill:#BDD0FB;" d="M927.433,1222.791c2.389-3.677,4.608-7.496,6.642-11.448l0,0
						c0.641-1.243,1.261-2.499,1.861-3.763c2.959-6.234,5.417-12.693,7.336-19.277c0.026-0.09,0.052-0.179,0.079-0.269
						c0.073-0.255,0.146-0.51,0.217-0.766c0.141-0.497,0.277-0.996,0.412-1.493c0.354-1.311-0.202-2.652-1.281-3.355
						c-0.263-0.171-0.557-0.303-0.875-0.389c-1.629-0.439-3.301,0.53-3.742,2.156c-2.256,8.383-5.433,16.578-9.44,24.359
						c-19.888,38.658-57.606,62.275-97.985,66.007c-22.459,2.079-45.742-1.998-67.241-13.063c-3.771-1.939-7.415-4.056-10.922-6.336
						c-23.602-15.341-41.064-38.142-49.768-65.311c-10-31.207-7.249-64.441,7.747-93.578
						c30.976-60.172,105.08-83.899,165.226-52.943c3.709,1.908,7.307,3.998,10.781,6.257c15.055,9.787,27.801,22.759,37.277,38.03
						c0.245,0.394,0.564,0.714,0.93,0.95c0.961,0.624,2.237,0.68,3.275,0.034c1.432-0.895,1.879-2.771,0.984-4.208
						c-9.949-16.032-23.331-29.654-39.135-39.928c-3.646-2.371-7.423-4.564-11.314-6.568
						c-63.148-32.501-140.967-7.547-173.456,55.578c-15.744,30.589-18.63,65.477-8.132,98.238
						c9.137,28.522,27.47,52.459,52.246,68.565c3.682,2.393,7.508,4.614,11.464,6.651c30.591,15.743,65.479,18.632,98.24,8.135
						C887.387,1265.916,911.328,1247.575,927.433,1222.791z"/>
				</g>
			</g>
			<g>
				<g style="opacity:0.3;">
					<path style="fill:#91B3FA;" d="M1327.343,817.62c1.112-1.711,1.02-4.012-0.378-5.64c-2.607-3.039-5.341-6.042-8.128-8.922
						c-1.811-1.872-4.794-1.921-6.67-0.11c-1.882,1.807-1.92,4.798-0.11,6.67c2.656,2.744,5.262,5.606,7.751,8.506
						c1.693,1.976,4.671,2.203,6.651,0.509C1326.809,818.331,1327.103,817.989,1327.343,817.62z"/>
					<path style="fill:#91B3FA;" d="M1301.007,792.758c-1.636,2.027-4.603,2.349-6.633,0.713
						c-5.122-4.122-10.515-8.03-16.026-11.612c-1.162-0.755-2.338-1.5-3.525-2.235c-2.211-1.374-2.893-4.281-1.52-6.495
						c1.382-2.041,4.281-2.893,6.498-1.521c1.241,0.771,2.47,1.55,3.687,2.341c5.778,3.755,11.432,7.852,16.802,12.177
						c1.901,1.529,2.302,4.234,1,6.239C1301.204,792.498,1301.108,792.628,1301.007,792.758z M1253.736,768.257
						c-7.235-3.347-14.741-6.278-22.311-8.705c-2.482-0.797-3.845-3.449-3.05-5.932c0.795-2.467,3.451-3.848,5.932-3.051
						c7.933,2.544,15.804,5.614,23.389,9.126c2.365,1.094,3.394,3.898,2.302,6.264c-0.096,0.207-0.209,0.405-0.33,0.593
						C1258.41,768.487,1255.891,769.254,1253.736,768.257z M1208.202,753.673c-7.822-1.471-15.818-2.465-23.772-2.956
						c-2.598-0.161-4.577-2.4-4.415-4.998c0.162-2.608,2.394-4.58,4.998-4.419c8.34,0.514,16.73,1.56,24.931,3.099
						c2.56,0.482,4.248,2.948,3.766,5.507c-0.12,0.623-0.354,1.196-0.68,1.698C1212.019,753.16,1210.137,754.035,1208.202,753.673z
						 M1160.475,750.722c-7.956,0.493-15.957,1.485-23.766,2.951c-2.564,0.479-5.028-1.207-5.506-3.767
						c-0.477-2.554,1.205-5.024,3.765-5.506c8.195-1.536,16.578-2.576,24.924-3.094c2.599-0.162,4.839,1.818,5.001,4.418
						c0.061,1.048-0.22,2.038-0.752,2.857C1163.354,749.791,1162.026,750.626,1160.475,750.722z M1113.474,759.512
						c-7.594,2.412-15.107,5.317-22.338,8.633c-2.365,1.086-5.166,0.046-6.253-2.322c-1.087-2.368-0.052-5.17,2.322-6.253
						c7.577-3.476,15.454-6.52,23.411-9.051c2.483-0.786,5.135,0.585,5.923,3.066c0.446,1.402,0.202,2.859-0.541,4.003
						C1115.425,758.47,1114.554,759.168,1113.474,759.512z M1070.031,779.446c-6.772,4.183-13.345,8.827-19.538,13.81
						c-2.028,1.632-4.999,1.311-6.63-0.719c-1.631-2.03-1.312-4.989,0.718-6.634c6.493-5.224,13.39-10.097,20.494-14.485
						c2.217-1.366,5.123-0.681,6.491,1.534c0.99,1.605,0.905,3.571-0.058,5.052C1071.139,778.57,1070.645,779.067,1070.031,779.446z
						 M1032.798,809.386c-5.521,5.699-10.758,11.821-15.563,18.2c-1.57,2.078-4.527,2.494-6.606,0.926
						c-2.08-1.566-2.466-4.498-0.93-6.608c5.041-6.684,10.531-13.103,16.322-19.081c1.814-1.87,4.8-1.918,6.672-0.106
						c1.645,1.594,1.879,4.099,0.674,5.953C1033.204,808.922,1033.015,809.162,1032.798,809.386z M987.169,871.52
						c-2.4-1.015-3.52-3.781-2.504-6.181c2.811-6.641,6.035-13.242,9.569-19.604c0.532-0.97,1.076-1.926,1.626-2.882
						c1.23-2.282,4.188-3.03,6.446-1.719c2.256,1.304,3.025,4.187,1.722,6.445c-0.52,0.893-1.029,1.795-1.537,2.72
						c-3.385,6.088-6.46,12.384-9.142,18.717c-0.11,0.261-0.242,0.508-0.39,0.735C991.737,871.634,989.306,872.425,987.169,871.52z"
						/>
				</g>
				<g style="opacity:0.3;">
					<path style="fill:#91B3FA;" d="M1341.582,1058.051c-4.568,6.835-9.596,13.447-14.936,19.662c-1.699,1.972-4.676,2.2-6.653,0.5
						c-1.978-1.7-2.17-4.676-0.5-6.653c5.096-5.923,9.889-12.233,14.247-18.754c1.446-2.167,4.378-2.747,6.542-1.3
						c2.148,1.437,2.739,4.332,1.336,6.491C1341.606,1058.014,1341.593,1058.033,1341.582,1058.051z M1347.712,1038.794
						c-2.322-1.177-3.251-4.016-2.073-6.338c3.543-6.99,6.699-14.264,9.377-21.624c0.893-2.431,3.598-3.71,6.048-2.815
						c2.448,0.891,3.707,3.595,2.818,6.044c-2.808,7.712-6.115,15.336-9.83,22.659c-0.079,0.155-0.162,0.301-0.255,0.444
						C1352.502,1039.157,1349.885,1039.896,1347.712,1038.794z M1309.416,1095.426c-6.088,5.531-12.565,10.738-19.252,15.473
						c-2.126,1.505-5.073,1.002-6.576-1.123c-1.508-2.126-1.004-5.058,1.12-6.576c6.38-4.517,12.557-9.482,18.368-14.756
						c1.929-1.751,4.912-1.607,6.66,0.318c1.473,1.622,1.606,3.988,0.466,5.741
						C1309.987,1094.835,1309.725,1095.146,1309.416,1095.426z M1365.241,993.898c-2.538-0.584-4.121-3.118-3.538-5.656
						c1.759-7.635,3.065-15.453,3.88-23.241c0.275-2.587,2.596-4.468,5.18-4.201c2.592,0.272,4.474,2.592,4.202,5.183
						c-0.852,8.167-2.221,16.37-4.068,24.377c-0.129,0.554-0.349,1.061-0.641,1.511
						C1369.206,993.486,1367.224,994.355,1365.241,993.898z M1269.185,1123.91c-7.223,3.896-14.761,7.388-22.406,10.386
						c-2.425,0.951-5.163-0.246-6.114-2.672c-0.951-2.426,0.24-5.164,2.671-6.114c7.294-2.855,14.481-6.188,21.369-9.906
						c2.292-1.236,5.154-0.381,6.391,1.915c0.848,1.57,0.711,3.412-0.199,4.812
						C1270.482,1122.97,1269.905,1123.521,1269.185,1123.91z M1223.289,1141.913c-7.962,2.056-16.12,3.646-24.245,4.728
						c-2.581,0.344-4.952-1.468-5.295-4.051c-0.346-2.579,1.468-4.955,4.053-5.299c7.747-1.033,15.529-2.552,23.128-4.514
						c2.522-0.652,5.095,0.866,5.747,3.388c0.343,1.332,0.083,2.68-0.614,3.752
						C1225.443,1140.872,1224.477,1141.606,1223.289,1141.913z M1174.398,1148.411c-8.228,0.092-16.534-0.323-24.681-1.228
						c-2.592-0.289-4.455-2.62-4.167-5.21c0.286-2.588,2.623-4.451,5.207-4.167c7.771,0.866,15.689,1.26,23.533,1.169
						c2.606-0.029,4.742,2.06,4.769,4.665c0.014,0.967-0.268,1.866-0.758,2.619
						C1177.471,1147.537,1176.038,1148.391,1174.398,1148.411z"/>
					<path style="fill:#91B3FA;" d="M1375.277,943.727c0.496-0.763,0.776-1.677,0.758-2.655c-0.074-4.037-0.27-8.089-0.577-12.046
						c-0.203-2.596-2.472-4.54-5.07-4.339c-2.591,0.209-4.535,2.473-4.338,5.07c0.295,3.773,0.48,7.64,0.553,11.492
						c0.048,2.605,2.201,4.677,4.804,4.627C1373.032,945.845,1374.452,944.996,1375.277,943.727z"/>
				</g>
				<g>
					<path style="fill:#91B3FA;" d="M1311.406,880.606c-0.312-0.97-1.203-1.637-2.222-1.659l-29.063-0.639
						c-6.982-11.643-15.87-22.256-26.507-31.314l4.147-28.754c0.145-1.009-0.365-1.998-1.271-2.465l-31.004-15.956
						c-0.906-0.467-2.009-0.307-2.744,0.397l-20.989,20.087c-13.553-3.392-27.356-4.457-40.888-3.372l-17.411-23.279
						c-0.61-0.816-1.671-1.155-2.642-0.844l-33.206,10.64c-0.97,0.311-1.637,1.203-1.659,2.222l-0.638,29.063
						c-11.643,6.981-22.257,15.87-31.315,26.507l-28.754-4.148c-1.009-0.145-1.998,0.365-2.465,1.271l-15.957,31.004
						c-0.466,0.906-0.306,2.008,0.398,2.744l20.087,20.989c-3.392,13.553-4.457,27.356-3.371,40.888l-23.28,17.41
						c-0.816,0.61-1.155,1.671-0.844,2.641l10.64,33.207c0.311,0.97,1.203,1.636,2.221,1.659l29.064,0.639
						c6.981,11.643,15.87,22.256,26.507,31.314l-4.147,28.754c-0.146,1.008,0.364,1.998,1.271,2.464l31.004,15.957
						c0.906,0.466,2.008,0.306,2.744-0.398l20.989-20.087c13.553,3.392,27.356,4.457,40.888,3.371l17.41,23.28
						c0.61,0.816,1.671,1.155,2.642,0.844l33.206-10.64c0.971-0.311,1.637-1.203,1.66-2.222l0.638-29.063
						c11.643-6.981,22.256-15.87,31.314-26.507l28.754,4.148c1.008,0.145,1.998-0.365,2.465-1.271l15.956-31.004
						c0.466-0.906,0.307-2.008-0.398-2.744l-20.086-20.989c3.392-13.553,4.456-27.356,3.371-40.888l23.28-17.411
						c0.816-0.61,1.155-1.671,0.844-2.641L1311.406,880.606z"/>
					<g>
						<path style="fill:#BDD0FB;" d="M1197.691,967.519c-6.302,7.153-15.013,11.419-24.525,12.016
							c-9.509,0.6-18.685-2.542-25.834-8.846c-14.756-13.009-16.17-35.561-3.168-50.361c13.016-14.754,35.604-16.174,50.356-3.166
							c7.15,6.302,11.417,15.011,12.016,24.522c0.486,7.732-1.5,15.242-5.646,21.622
							C1199.937,964.774,1198.868,966.183,1197.691,967.519z M1153.568,963.612c5.26,4.638,12.009,6.949,19.008,6.509
							c6.994-0.44,13.402-3.58,18.038-8.838l0,0c4.63-5.265,6.946-12.008,6.506-19.007c-0.437-6.994-3.58-13.401-8.836-18.036
							c-10.855-9.57-27.47-8.526-37.044,2.326c-0.862,0.981-1.639,2.006-2.33,3.07
							C1141.938,940.365,1143.695,954.907,1153.568,963.612z"/>
					</g>
					<path style="fill:#BDD0FB;" d="M1244.676,992.57c1.626-2.503,3.138-5.108,4.535-7.815c2.77-5.378,4.995-11.043,6.617-16.853
						c0.071-0.262,0.142-0.523,0.213-0.785c0.546-2.024-0.311-4.094-1.979-5.181c-0.405-0.263-0.86-0.468-1.351-0.601
						c-2.515-0.678-5.094,0.821-5.778,3.329c-1.463,5.439-3.52,10.743-6.11,15.768l-0.001,0.002
						c-0.141,0.276-0.288,0.552-0.431,0.824c-6.236,11.837-15.187,21.672-26.035,28.897c-5.889,3.922-12.342,7.073-19.233,9.349
						c-0.056,0.019-0.112,0.037-0.168,0.056c-0.174,0.055-0.343,0.113-0.515,0.166c-20.203,6.472-41.718,4.692-60.58-5.017
						c-2.442-1.255-4.799-2.624-7.07-4.1c-15.279-9.931-26.583-24.694-32.221-42.283c-6.472-20.203-4.688-41.716,5.019-60.576
						c9.709-18.846,26.181-32.815,46.382-39.292c20.203-6.472,41.718-4.692,60.58,5.017c2.401,1.233,4.73,2.588,6.977,4.048
						c9.748,6.337,17.998,14.733,24.132,24.619c0.379,0.609,0.871,1.102,1.436,1.467c1.483,0.964,3.455,1.05,5.058,0.054
						c2.21-1.38,2.896-4.279,1.52-6.498c-6.864-11.061-16.096-20.458-26.997-27.547c-2.518-1.636-5.122-3.15-7.806-4.532
						c-21.106-10.862-45.176-12.854-67.78-5.611c-22.6,7.244-41.038,22.834-51.89,43.956c-10.863,21.103-12.857,45.171-5.61,67.775
						c6.303,19.678,18.951,36.193,36.045,47.304c2.538,1.649,5.177,3.183,7.906,4.588
						C1170.4,1044.125,1220.156,1030.302,1244.676,992.57z"/>
				</g>
			</g>
		</g>
		<g>
			<polygon style="fill:#91B3FA;" points="2282.654,1312.776 2145.484,1453.092 2310.024,1409.139 			"/>
			<path style="fill:#91B3FA;" d="M3098.85,1370.856l-779.418,37.826c-20.017,0.972-36.778-14.996-36.778-35.036v-320.654
				c0-34.852,27.681-63.404,62.517-64.482l702.457-21.737c52.311,0,94.717,42.406,94.717,94.717v263.707
				C3142.345,1349.582,3123.205,1369.674,3098.85,1370.856z"/>
			<path style="opacity:0.85;fill:#FFFFFF;" d="M2342.741,1395.806c-12.422,0-24.127-4.681-33.186-13.319
				c-9.626-9.184-14.93-21.57-14.93-34.876v-289.002c0-34.059,27.305-61.562,62.168-62.615l680.137-20.538
				c51.548,0,93.447,40.905,93.447,91.183v249.163c0,23.977-19.207,43.667-43.727,44.827l-741.556,35.122
				C2344.309,1395.786,2343.523,1395.806,2342.741,1395.806z M3036.979,978.834l-680.087,20.538
				c-33.021,0.997-58.888,27.017-58.888,59.236v289.002c0,12.374,4.93,23.89,13.884,32.43c8.953,8.539,20.678,12.935,33.047,12.333
				l741.556-35.122c22.715-1.074,40.506-19.281,40.506-41.451v-249.163C3126.997,1018.223,3086.617,978.834,3036.979,978.834z"/>
			
				<linearGradient id="SVGID_00000074436770574805567870000006111697445800406923_" gradientUnits="userSpaceOnUse" x1="2400.7307" y1="1060.2635" x2="3046.2869" y2="1060.2635">
				<stop  offset="0" style="stop-color:#DAE3FE"/>
				<stop  offset="1" style="stop-color:#E9EFFD"/>
			</linearGradient>
			<path style="fill:url(#SVGID_00000074436770574805567870000006111697445800406923_);" d="M3034.706,1037.295l-623.235,23.325
				c-6.12,0.229-10.938,4.286-10.735,9.038l0.234,5.478c0.201,4.703,5.247,8.317,11.303,8.095l623.259-22.759
				c6.125-0.224,10.951-4.282,10.748-9.038l-0.258-6.045C3045.821,1040.684,3040.767,1037.069,3034.706,1037.295z"/>
			
				<linearGradient id="SVGID_00000085232280968506852970000007404565314376801666_" gradientUnits="userSpaceOnUse" x1="2344.9661" y1="1218.3904" x2="2990.5374" y2="1218.3904">
				<stop  offset="0" style="stop-color:#DAE3FE"/>
				<stop  offset="1" style="stop-color:#E9EFFD"/>
			</linearGradient>
			<path style="fill:url(#SVGID_00000085232280968506852970000007404565314376801666_);" d="M2978.934,1195.077l-623.24,23.207
				c-6.12,0.228-10.932,4.422-10.722,9.345l0.243,5.674c0.208,4.871,5.26,8.622,11.316,8.402l623.265-22.62
				c6.125-0.222,10.945-4.418,10.734-9.345l-0.268-6.261C2990.055,1198.603,2984.995,1194.851,2978.934,1195.077z"/>
			
				<linearGradient id="SVGID_00000160161469694458060350000010920372908400660632_" gradientUnits="userSpaceOnUse" x1="2344.9702" y1="1286.0221" x2="3064.6121" y2="1286.0221">
				<stop  offset="0" style="stop-color:#DAE3FE"/>
				<stop  offset="1" style="stop-color:#E9EFFD"/>
			</linearGradient>
			<path style="fill:url(#SVGID_00000160161469694458060350000010920372908400660632_);" d="M3051.746,1261.08l-694.777,26.232
				c-6.822,0.258-12.205,4.515-11.992,9.486l0.245,5.73c0.21,4.919,5.824,8.684,12.575,8.435l694.802-25.64
				c6.828-0.252,12.219-4.512,12.007-9.487l-0.271-6.323C3064.125,1264.593,3058.502,1260.825,3051.746,1261.08z"/>
			
				<linearGradient id="SVGID_00000140702055512832399520000018117900676677724075_" gradientUnits="userSpaceOnUse" x1="2347.7368" y1="1148.4115" x2="2699.8289" y2="1148.4115">
				<stop  offset="0" style="stop-color:#DAE3FE"/>
				<stop  offset="1" style="stop-color:#E9EFFD"/>
			</linearGradient>
			<path style="fill:url(#SVGID_00000140702055512832399520000018117900676677724075_);" d="M2693.004,1130.319l-339.69,9.902
				c-3.336,0.097-5.83,4.676-5.557,10.201l0.314,6.369c0.27,5.467,3.15,9.804,6.451,9.714l339.722-9.244
				c3.339-0.091,5.837-4.671,5.564-10.201l-0.347-7.027C2699.191,1134.561,2696.307,1130.223,2693.004,1130.319z"/>
			
				<linearGradient id="SVGID_00000152261913306886617340000017173695398315672728_" gradientUnits="userSpaceOnUse" x1="2740.979" y1="1136.3213" x2="3073.8015" y2="1136.3213">
				<stop  offset="0" style="stop-color:#DAE3FE"/>
				<stop  offset="1" style="stop-color:#E9EFFD"/>
			</linearGradient>
			<path style="fill:url(#SVGID_00000152261913306886617340000017173695398315672728_);" d="M3067.296,1118.578l-321.073,9.204
				c-3.153,0.09-5.496,4.663-5.221,10.188l0.317,6.369c0.272,5.467,3.007,9.809,6.127,9.726l321.106-8.546
				c3.156-0.084,5.503-4.659,5.228-10.188l-0.35-7.027C3073.158,1122.832,3070.418,1118.488,3067.296,1118.578z"/>
		</g>
		<g>
			
				<linearGradient id="SVGID_00000125565087988711964140000016402491629615414676_" gradientUnits="userSpaceOnUse" x1="7779.6362" y1="3089.1841" x2="7159.2837" y2="3763.9543" gradientTransform="matrix(1 0 0 1 -6484.3511 0)">
				<stop  offset="0" style="stop-color:#09005D"/>
				<stop  offset="1" style="stop-color:#1A0F91"/>
			</linearGradient>
			<path style="fill:url(#SVGID_00000125565087988711964140000016402491629615414676_);" d="M1099.191,3139.451
				c0,0-6.425,36.37-9.575,72.373c-1.231,14.07,9.617,26.287,23.73,26.875c47.944,1.996,150.501,5.879,187.302,4.237
				c5.532-0.247,9.15-5.91,7.102-11.056l0,0c-1.716-4.312-5.025-7.798-9.241-9.735l-169.404-77.858L1099.191,3139.451z"/>
			
				<linearGradient id="SVGID_00000026883682701307563180000006724295514903009688_" gradientUnits="userSpaceOnUse" x1="7578.2788" y1="3139.3003" x2="7633.3813" y2="3139.3003" gradientTransform="matrix(1 0 0 1 -6484.3511 0)">
				<stop  offset="0" style="stop-color:#FEBBBA"/>
				<stop  offset="1" style="stop-color:#FF928E"/>
			</linearGradient>
			<path style="fill:url(#SVGID_00000026883682701307563180000006724295514903009688_);" d="M1093.927,3118.081l5.162,43.503
				c0,0,29.675,13.815,49.941-1.741l-12.289-48.481L1093.927,3118.081z"/>
			
				<linearGradient id="SVGID_00000157285033842008807090000004222593592249336510_" gradientUnits="userSpaceOnUse" x1="7828.4819" y1="2326.0918" x2="7300.6216" y2="3041.5386" gradientTransform="matrix(1 0 0 1 -6484.3511 0)">
				<stop  offset="0" style="stop-color:#09005D"/>
				<stop  offset="1" style="stop-color:#1A0F91"/>
			</linearGradient>
			<path style="fill:url(#SVGID_00000157285033842008807090000004222593592249336510_);" d="M1097.807,2300.197
				c-2.23,11.361-11.967,566.927,47.418,815.896c0.969,4.063-1.091,8.25-4.957,9.83c-9.108,3.721-26.965,9.11-48.365,9.829
				c-6.627,0.223-12.569-4.084-14.439-10.446c-16.975-57.765-98.317-347.181-108.929-623.652c-11.857-308.929,0-10.519,0-10.519
				l6.954-190.961L1097.807,2300.197z"/>
			
				<linearGradient id="SVGID_00000067921729533793284630000017910353943967014062_" gradientUnits="userSpaceOnUse" x1="7640.4697" y1="2961.2415" x2="7020.1172" y2="3636.0112" gradientTransform="matrix(1 0 0 1 -6484.3511 0)">
				<stop  offset="0" style="stop-color:#09005D"/>
				<stop  offset="1" style="stop-color:#1A0F91"/>
			</linearGradient>
			<path style="fill:url(#SVGID_00000067921729533793284630000017910353943967014062_);" d="M904.32,3158.424
				c0,0-10.226,18.361-20.128,67.151c-1.787,8.812,4.369,17.245,13.317,18.124c15.831,1.557,40.203,3.559,59.725,3.425
				c9-0.062,16.023-7.898,14.939-16.832c-2.162-17.809-8.899-47.027-29.711-69.8L904.32,3158.424z"/>
			
				<linearGradient id="SVGID_00000117675269879060880150000008356932344876820918_" gradientUnits="userSpaceOnUse" x1="7379.6885" y1="3136.4749" x2="7427.2646" y2="3136.4749" gradientTransform="matrix(1 0 0 1 -6484.3511 0)">
				<stop  offset="0" style="stop-color:#FEBBBA"/>
				<stop  offset="1" style="stop-color:#FF928E"/>
			</linearGradient>
			<path style="fill:url(#SVGID_00000117675269879060880150000008356932344876820918_);" d="M895.337,3102.469l12.061,65.789
				c0,0,11.925,8.871,35.515,2.44l-5.756-70.785L895.337,3102.469z"/>
			
				<linearGradient id="SVGID_00000067959023773461362570000005777295240425403801_" gradientUnits="userSpaceOnUse" x1="7734.4048" y1="2256.6807" x2="7206.5444" y2="2972.1272" gradientTransform="matrix(1 0 0 1 -6484.3511 0)">
				<stop  offset="0" style="stop-color:#09005D"/>
				<stop  offset="1" style="stop-color:#1A0F91"/>
			</linearGradient>
			<path style="fill:url(#SVGID_00000067959023773461362570000005777295240425403801_);" d="M862.756,2317.246
				c-48.57,293.122,10.536,724.475,30.469,808.9c1.22,5.169,5.392,9.129,10.631,9.998c8.898,1.475,23.547,2.678,37.989-1.516
				c4.976-1.445,8.472-5.933,8.674-11.112c2.674-68.256-2.139-487.281,43.117-652.883c2.293-8.392,7.418-15.711,14.509-20.752
				l87.839-62.446l6.734-100.938L862.756,2317.246z"/>
			<g>
				
					<linearGradient id="SVGID_00000070810893848602282340000008648488012986933174_" gradientUnits="userSpaceOnUse" x1="1063.4065" y1="1938.3402" x2="1904.9443" y2="488.4606">
					<stop  offset="0" style="stop-color:#4F52FF"/>
					<stop  offset="1" style="stop-color:#4042E2"/>
				</linearGradient>
				<path style="fill:url(#SVGID_00000070810893848602282340000008648488012986933174_);" d="M1172.243,1761.837
					c-145.554-2.405-306.157,38.218-306.157,38.218c-43.387,253.16-7.587,545.162-7.587,545.162
					c112.684,29.551,239.799-18.067,239.799-18.067c18.729-105.815,106.113-403.613,106.113-403.613
					c71.117-8.826,129.703-29.345,177.948-56.472c-36.801-42.657-54.15-96.936-61.685-129.022
					C1269.212,1754.036,1217.138,1762.579,1172.243,1761.837z"/>
				
					<linearGradient id="SVGID_00000082349585949154879690000008935293428848391057_" gradientUnits="userSpaceOnUse" x1="-3067.8442" y1="1373.7493" x2="-2970.6228" y2="1651.5258" gradientTransform="matrix(-1 0 0 1 -1509.069 0)">
					<stop  offset="0" style="stop-color:#FEBBBA"/>
					<stop  offset="1" style="stop-color:#FF928E"/>
				</linearGradient>
				<path style="fill:url(#SVGID_00000082349585949154879690000008935293428848391057_);" d="M1602.184,1547.443
					c-14.298-17.27-32.395-9.1-32.395-9.1c-21.42,90.479-133.73,163.84-249.114,199.7c7.535,32.086,24.884,86.365,61.685,129.022
					C1573.85,1759.398,1602.184,1547.443,1602.184,1547.443z"/>
			</g>
			<g>
				
					<linearGradient id="SVGID_00000128454466747412137660000012801185597797557179_" gradientUnits="userSpaceOnUse" x1="-3150.9409" y1="1402.833" x2="-3053.7197" y2="1680.6085" gradientTransform="matrix(-1 0 0 1 -1509.069 0)">
					<stop  offset="0" style="stop-color:#FEBBBA"/>
					<stop  offset="1" style="stop-color:#FF928E"/>
				</linearGradient>
				<path style="fill:url(#SVGID_00000128454466747412137660000012801185597797557179_);" d="M1598.714,1551.834
					c1.497,4.757-15.829,11.999-26.03-7.454c-0.357-9.323-6.026-49.264-0.455-56.859c29.67-40.451,87.194-91.158,87.194-91.158
					c9.722,9.593,1.713,19.016,1.713,19.016l-27.906,29.07c5.837,10.548,12.957,19.452,16.293,32.21
					c2.527,9.662,0.981,19.987-3.899,28.781c-4.899,8.824-11.582,20.296-17.9,29.274
					C1615.766,1551.707,1598.714,1551.834,1598.714,1551.834z"/>
				
					<linearGradient id="SVGID_00000042728724983072634450000000551047347502115477_" gradientUnits="userSpaceOnUse" x1="-3076.2537" y1="1580.3033" x2="-3149.4861" y2="1432.5757" gradientTransform="matrix(-1 0 0 1 -1509.069 0)">
					<stop  offset="0" style="stop-color:#FEBBBA"/>
					<stop  offset="1" style="stop-color:#FF928E"/>
				</linearGradient>
				<path style="fill:url(#SVGID_00000042728724983072634450000000551047347502115477_);" d="M1621.024,1463.313l-25.43,21.558
					l-7.984,21.463l22.674,25.153c0,0,7.623-42.587,13.289-51.805C1629.239,1470.465,1626.3,1466.008,1621.024,1463.313z"/>
			</g>
			
				<linearGradient id="SVGID_00000083782107482644626880000013279042654139409328_" gradientUnits="userSpaceOnUse" x1="888.3639" y1="1836.7422" x2="1729.9019" y2="386.8623">
				<stop  offset="0" style="stop-color:#4F52FF"/>
				<stop  offset="1" style="stop-color:#4042E2"/>
			</linearGradient>
			<path style="fill:url(#SVGID_00000083782107482644626880000013279042654139409328_);" d="M921.915,1940.994l-55.829-140.94
				c0,0-135.956,92.376-158.315,209.499c25.689,1.892,72.434,8.574,118.189,31.677
				C836.016,1985.926,921.915,1940.994,921.915,1940.994z"/>
			
				<linearGradient id="SVGID_00000158015043993677694970000014580018621777759893_" gradientUnits="userSpaceOnUse" x1="7189.0234" y1="2100.4897" x2="7545.2773" y2="2100.4897" gradientTransform="matrix(1 0 0 1 -6484.3511 0)">
				<stop  offset="0" style="stop-color:#FEBBBA"/>
				<stop  offset="1" style="stop-color:#FF928E"/>
			</linearGradient>
			<path style="fill:url(#SVGID_00000158015043993677694970000014580018621777759893_);" d="M1040.725,2073.614
				c0,0-152.644,86.267-204.149,12.605c-10.693-15.296-13.25-30.497-10.615-44.988c-45.755-23.103-92.501-29.786-118.189-31.677
				c-6.741,35.309-3.177,72.862,17.571,110.817c90.218,165.034,335.584-9.121,335.584-9.121L1040.725,2073.614z"/>
			<g>
				<path style="fill:#91B3FA;" d="M1022.385,2182.75l83.308-290.928c0.945-3.302,3.762-5.711,7.175-6.109
					c15.094-1.76,58.829-6.704,109.327-10.976c60.827-5.145,131.464-9.314,173.675-5.767c6.001,0.504,9.628,6.851,6.959,12.25
					c-24.004,48.562-122.739,246.102-172.182,310.813c-1.639,2.144-4.172,3.397-6.87,3.372l-193.287-1.799
					C1024.865,2193.553,1020.836,2188.157,1022.385,2182.75z"/>
				<path style="fill:#BDD0FB;" d="M1230.837,1849.514l60.399-10.064c3.217-0.536,5.852,2.538,4.829,5.635l-5.979,18.118
					c-0.521,1.577-1.896,2.718-3.542,2.938l-58.123,7.764c-3.006,0.401-5.486-2.331-4.795-5.285l3.701-15.818
					C1227.726,1851.099,1229.111,1849.802,1230.837,1849.514z"/>
				<path style="fill:#BDD0FB;" d="M1185.611,1900.647l4.976-25.918c0.499-2.599,2.646-4.563,5.278-4.831l121.993-12.379
					c4.106-0.417,7.394,3.346,6.431,7.359l-7.757,32.296c-0.621,2.584-2.87,4.45-5.524,4.583l-119.212,6.001
					C1187.916,1907.956,1184.879,1904.463,1185.611,1900.647z"/>
				
					<linearGradient id="SVGID_00000168096746322345753220000010743914651510928031_" gradientUnits="userSpaceOnUse" x1="7518.8271" y1="2063.137" x2="7629.814" y2="2063.137" gradientTransform="matrix(1 0 0 1 -6484.3511 0)">
					<stop  offset="0" style="stop-color:#FEBBBA"/>
					<stop  offset="1" style="stop-color:#FF928E"/>
				</linearGradient>
				<path style="fill:url(#SVGID_00000168096746322345753220000010743914651510928031_);" d="M1042.512,2112.462
					c0,0-11.604-47.719-6.924-64.648c4.682-16.93,13.751-38.697,43.982-33.86c30.232,4.837,65.893,17.572,65.893,17.572
					s-1.801,22.052-24.778,14.937l14.248,11.025c0,0-2.036,17.656-21.444,8.223l13.252,14.621c0,0-8.335,14.501-22.614,5.2
					C1089.85,2076.231,1083.005,2118.208,1042.512,2112.462z"/>
			</g>
			
				<linearGradient id="SVGID_00000108286701239345821320000004138689705558579361_" gradientUnits="userSpaceOnUse" x1="7462.5771" y1="1719.6334" x2="7603.4277" y2="1719.6334" gradientTransform="matrix(1 0 0 1 -6484.3511 0)">
				<stop  offset="0" style="stop-color:#FEBBBA"/>
				<stop  offset="1" style="stop-color:#FF928E"/>
			</linearGradient>
			<path style="fill:url(#SVGID_00000108286701239345821320000004138689705558579361_);" d="M1024.809,1643.669l-46.313,133.935
				c-0.767,2.218,0.145,4.675,2.199,5.812c12.624,6.98,58.108,27.155,112.92-7.596c5.71-3.62,9.597-9.524,10.464-16.23
				l14.998-115.92H1024.809z"/>
			<g>
				
					<linearGradient id="SVGID_00000116201120513366032140000003863494815232503209_" gradientUnits="userSpaceOnUse" x1="252.65" y1="3487.1831" x2="200.0156" y2="3313.5825" gradientTransform="matrix(0.746 -0.6659 0.6659 0.746 -1358.0157 -803.1727)">
					<stop  offset="0" style="stop-color:#FEBBBA"/>
					<stop  offset="1" style="stop-color:#FF928E"/>
				</linearGradient>
				<path style="fill:url(#SVGID_00000116201120513366032140000003863494815232503209_);" d="M1125.579,1519.642
					c0,0,50.857,95.732,44.338,134.403c-6.519,38.67-69.548,35.894-124.587,4.487l-38.46-103.369L1125.579,1519.642z"/>
				
					<linearGradient id="SVGID_00000155862389963758013850000017742296666231104401_" gradientUnits="userSpaceOnUse" x1="205.1632" y1="3184.7095" x2="249.1916" y2="3435.8342" gradientTransform="matrix(0.746 -0.6659 0.6659 0.746 -1358.0157 -803.1727)">
					<stop  offset="0" style="stop-color:#09005D"/>
					<stop  offset="1" style="stop-color:#1A0F91"/>
				</linearGradient>
				<path style="fill:url(#SVGID_00000155862389963758013850000017742296666231104401_);" d="M1047.763,1607.768
					c2.236-0.991,3.062-3.728,1.722-5.775c-4.075-6.225-11.713-18.923-14.149-30.041c0,0-9.142-5.856,23.27-13.613
					c32.412-7.759,80.746-19.8,90.906-47.389c9.906-26.898-16.12-94.543-57.642-40.644c-1.579,2.05-4.674,2.095-6.252,0.043
					c-6.807-8.859-24.702-27.247-49.547-16.1c-23.25,10.432-25.868,27.469-25.549,36.057c0.093,2.525-2.165,4.49-4.648,4.016
					c-11.755-2.242-39.964-4.167-53.13,24.77c-10.846,23.836-3.796,37.329,2.623,43.928c2.081,2.138,1.169,5.659-1.684,6.531
					c-7.725,2.365-17.701,8.916-16.703,27.016c1.381,25.023,29.357,22.818,37.322,21.678c1.306-0.187,2.621,0.261,3.505,1.238
					c6.829,7.558,37.601,39.65,70.905,43.519c2.884,0.335,5.119-2.513,4.175-5.258l-14.413-41.897
					c-0.669-1.945,0.262-4.08,2.143-4.914L1047.763,1607.768z"/>
				
					<linearGradient id="SVGID_00000181789283538909149900000007229075968995628986_" gradientUnits="userSpaceOnUse" x1="198.845" y1="3486.3745" x2="151.4891" y2="3330.1836" gradientTransform="matrix(0.746 -0.6659 0.6659 0.746 -1358.0157 -803.1727)">
					<stop  offset="0" style="stop-color:#FEBBBA"/>
					<stop  offset="1" style="stop-color:#FF928E"/>
				</linearGradient>
				<path style="fill:url(#SVGID_00000181789283538909149900000007229075968995628986_);" d="M1053.557,1613.715
					c0,0-36.21-24.844-38.856-3.922c-2.645,20.921,32.608,30.304,50.069,22.504L1053.557,1613.715z"/>
			</g>
		</g>
	</g>
</g>
</svg>
